#!OML:ASF E:\motion texture\Top Level 1\Subject 1\Session 1\male.ASF
:FULLY-SPECIFIED
:DEGREES
523
root -17.4264 17.7888 3.58225 604.331 -90.93 -598.31
lowerback -1.59197 -1.65506 1.45132
upperback -1.17772 -2.26859 3.06837
thorax -0.246449 -1.15304 2.30146
lowerneck -18.4156 3.78042 -0.0850148
upperneck 28.6861 5.13271 -0.389485
head 12.5957 2.02513 0.649714
rclavicle 3.03147e-014 -4.92986e-014
rhumerus -48.9424 -25.166 -58.976
rradius 24.3873
rwrist 9.8514
rhand -10.9015 -31.9593
rfingers 7.12502
rthumb 15.1154 -61.3874
lclavicle 3.03147e-014 -4.92986e-014
lhumerus -37.3088 35.2665 70.7153
lradius 21.4141
lwrist -17.2143
lhand -7.93872 32.4965
lfingers 7.12502
lthumb 17.9678 61.6865
rfemur -28.8839 0.531825 16.8609
rtibia 17.9018
rfoot -0.930547 -15.8202
rtoes 12.1684
lfemur -0.236584 -5.3409 -18.312
ltibia 31.6109
lfoot -6.70002 -1.82394
ltoes -21.3311
524
root -17.588 17.7964 3.55418 621.953 -91.122 -615.941
lowerback -1.56869 -1.53501 1.74219
upperback -1.14834 -2.11492 3.13571
thorax -0.241856 -1.07873 2.21029
lowerneck -18.4469 3.68527 -0.175961
upperneck 28.6975 5.00331 -0.319659
head 12.6015 1.96705 0.671591
rclavicle -1.56543e-014 3.81667e-014
rhumerus -48.4604 -24.5836 -59.8014
rradius 25.0882
rwrist 9.11791
rhand -10.8577 -31.8108
rfingers 7.12502
rthumb 15.1576 -61.2357
lclavicle -1.56543e-014 3.81667e-014
lhumerus -40.1363 37.2783 67.7901
lradius 20.3556
lwrist -19.1278
lhand -7.95598 33.2521
lfingers 7.12502
lthumb 17.9512 62.4436
rfemur -28.4908 0.709122 17.377
rtibia 17.9963
rfoot -0.848818 -15.4646
rtoes 12.6338
lfemur -0.774383 -5.11989 -17.8617
ltibia 33.0314
lfoot -5.78619 -1.90391
ltoes -21.2913
525
root -17.7494 17.805 3.52601 633.804 -91.3956 -627.803
lowerback -1.54377 -1.40995 2.03736
upperback -1.11942 -1.95464 3.20234
thorax -0.237825 -1.00116 2.11606
lowerneck -18.4754 3.58506 -0.273305
upperneck 28.7057 4.86694 -0.244116
head 12.6052 1.9061 0.695518
rclavicle 1.09829e-014 -1.98785e-014
rhumerus -47.9855 -23.9892 -60.6114
rradius 25.8079
rwrist 8.41524
rhand -10.8201 -31.6606
rfingers 7.12502
rthumb 15.1938 -61.0827
lclavicle 1.09829e-014 -1.98785e-014
lhumerus -43.2614 39.2869 64.4149
lradius 19.3689
lwrist -21.1486
lhand -7.97146 34.0171
lfingers 7.12502
lthumb 17.9363 63.2101
rfemur -28.0743 0.888306 17.9087
rtibia 18.0969
rfoot -0.781266 -15.1044
rtoes 13.1106
lfemur -1.36226 -4.88186 -17.3969
ltibia 34.487
lfoot -4.84482 -1.9812
ltoes -21.1634
526
root -17.9102 17.8147 3.49771 641.453 -91.7138 -635.463
lowerback -1.5183 -1.28166 2.33228
upperback -1.09205 -1.79006 3.26775
thorax -0.234581 -0.921443 2.02077
lowerneck -18.5049 3.4786 -0.375846
upperneck 28.7125 4.72211 -0.164443
head 12.6086 1.84148 0.720559
rclavicle 9.98893e-015 7.95139e-015
rhumerus -47.5196 -23.3791 -61.4077
rradius 26.5509
rwrist 7.73766
rhand -10.792 -31.5101
rfingers 7.12502
rthumb 15.2208 -60.9302
lclavicle 9.98893e-015 7.95139e-015
lhumerus -46.7172 41.2346 60.5595
lradius 18.4632
lwrist -23.2767
lhand -7.99364 34.777
lfingers 7.12502
lthumb 17.915 63.9718
rfemur -27.6377 1.06907 18.4491
rtibia 18.1969
rfoot -0.728969 -14.747
rtoes 13.6004
lfemur -2.00519 -4.63067 -16.9213
ltibia 35.974
lfoot -3.88714 -2.0563
ltoes -20.953
527
root -18.0705 17.8253 3.46939 646.565 -92.0596 -640.588
lowerback -1.49088 -1.14958 2.6295
upperback -1.06498 -1.62042 3.33215
thorax -0.231641 -0.839236 1.92321
lowerneck -18.5345 3.36636 -0.484276
upperneck 28.7169 4.56928 -0.079283
head 12.6111 1.77352 0.7474
rclavicle -9.29318e-015 8.74653e-015
rhumerus -47.0635 -22.7633 -62.1811
rradius 27.3107
rwrist 7.09322
rhand -10.7744 -31.3606
rfingers 7.12502
rthumb 15.2378 -60.7794
lclavicle -9.29318e-015 8.74653e-015
lhumerus -50.5166 43.0526 56.2187
lradius 17.648
lwrist -25.4941
lhand -8.02433 35.5328
lfingers 7.12502
lthumb 17.8854 64.7304
rfemur -27.1768 1.25474 18.9991
rtibia 18.289
rfoot -0.690918 -14.3932
rtoes 14.1003
lfemur -2.69697 -4.36589 -16.4338
ltibia 37.4839
lfoot -2.92488 -2.12843
ltoes -20.6646
528
root -18.23 17.8368 3.44108 650.081 -92.4204 -644.119
lowerback -1.46262 -1.01457 2.9263
upperback -1.03869 -1.44682 3.39475
thorax -0.228726 -0.755055 1.82408
lowerneck -18.5627 3.24853 -0.59836
upperneck 28.7189 4.40872 0.010991
head 12.6124 1.70234 0.775871
rclavicle -3.18055e-015 -2.46493e-014
rhumerus -46.6197 -22.1419 -62.9298
rradius 28.0875
rwrist 6.48076
rhand -10.7709 -31.2146
rfingers 7.12502
rthumb 15.2411 -60.6331
lclavicle -3.18055e-015 -2.46493e-014
lhumerus -54.644 44.6617 51.424
lradius 16.9315
lwrist -27.767
lhand -8.06506 36.277
lfingers 7.12502
lthumb 17.8462 65.4781
rfemur -26.6922 1.44645 19.5533
rtibia 18.3672
rfoot -0.665068 -14.045
rtoes 14.5908
lfemur -3.43662 -4.09014 -15.9387
ltibia 39.0098
lfoot -1.97084 -2.19705
ltoes -20.3231
529
root -18.3888 17.8492 3.41287 652.572 -92.7897 -646.625
lowerback -1.43358 -0.876818 3.22194
upperback -1.01272 -1.26952 3.45541
thorax -0.225249 -0.669017 1.72363
lowerneck -18.59 3.12488 -0.718447
upperneck 28.718 4.24025 0.106427
head 12.6125 1.62783 0.806037
rclavicle 1.74434e-014 9.54166e-015
rhumerus -46.1872 -21.5233 -63.648
rradius 28.8755
rwrist 5.90421
rhand -10.7849 -31.0703
rfingers 7.12502
rthumb 15.2277 -60.4899
lclavicle 1.74434e-014 9.54166e-015
lhumerus -59.037 45.9891 46.2571
lradius 16.3162
lwrist -30.0517
lhand -8.11767 37.0094
lfingers 7.12502
lthumb 17.7956 66.2151
rfemur -26.1838 1.64433 20.1095
rtibia 18.4267
rfoot -0.65434 -13.7063
rtoes 15.0749
lfemur -4.22188 -3.80539 -15.4382
ltibia 40.5441
lfoot -1.03886 -2.2612
ltoes -19.9257
530
root -18.5467 17.8622 3.38479 654.37 -93.1613 -648.44
lowerback -1.40394 -0.7373 3.51373
upperback -0.988005 -1.08968 3.51349
thorax -0.221985 -0.581695 1.62271
lowerneck -18.614 2.99579 -0.843921
upperneck 28.7136 4.06433 0.206511
head 12.6108 1.55019 0.837614
rclavicle 1.59028e-014 -3.49861e-014
rhumerus -45.7671 -20.9088 -64.334
rradius 29.6734
rwrist 5.36387
rhand -10.8133 -30.9342
rfingers 7.12502
rthumb 15.2003 -60.3559
lclavicle 1.59028e-014 -3.49861e-014
lhumerus -63.5958 46.9781 40.8395
lradius 15.8019
lwrist -32.3017
lhand -8.17645 37.7216
lfingers 7.12502
lthumb 17.739 66.9324
rfemur -25.6533 1.84739 20.6635
rtibia 18.4645
rfoot -0.662612 -13.3782
rtoes 15.5514
lfemur -5.05126 -3.51357 -14.9365
ltibia 42.0795
lfoot -0.142056 -2.32046
ltoes -19.4854
531
root -18.7035 17.8759 3.3569 655.667 -93.5318 -649.754
lowerback -1.37369 -0.596552 3.80117
upperback -0.964135 -0.907996 3.56844
thorax -0.218496 -0.493417 1.52105
lowerneck -18.6364 2.86103 -0.975145
upperneck 28.7059 3.88049 0.312121
head 12.6076 1.4693 0.870974
rclavicle -8.89561e-015 -3.65764e-014
rhumerus -45.3586 -20.304 -64.9853
rradius 30.478
rwrist 4.86099
rhand -10.8582 -30.8093
rfingers 7.12502
rthumb 15.1571 -60.2343
lclavicle -8.89561e-015 -3.65764e-014
lhumerus -68.1788 47.5969 35.3353
lradius 15.3839
lwrist -34.4702
lhand -8.24843 38.4057
lfingers 7.12502
lthumb 17.6698 67.6228
rfemur -25.1012 2.05476 21.2129
rtibia 18.477
rfoot -0.690284 -13.0643
rtoes 16.0202
lfemur -5.92209 -3.21748 -14.4356
ltibia 43.6075
lfoot 0.709291 -2.37618
ltoes -19.0138
532
root -18.8593 17.89 3.32924 656.602 -93.8973 -650.706
lowerback -1.34326 -0.455234 4.08212
upperback -0.940599 -0.725335 3.61998
thorax -0.213985 -0.404582 1.41951
lowerneck -18.6578 2.72078 -1.11134
upperneck 28.6953 3.68919 0.422034
head 12.6035 1.38526 0.905611
rclavicle 6.31141e-015 -2.78299e-014
rhumerus -44.9607 -19.7116 -65.6007
rradius 31.2875
rwrist 4.39462
rhand -10.9184 -30.6975
rfingers 7.12502
rthumb 15.0991 -60.1268
lclavicle 6.31141e-015 -2.78299e-014
lhumerus -72.6201 47.8407 29.939
lradius 15.0564
lwrist -36.4993
lhand -8.33877 39.0567
lfingers 7.12502
lthumb 17.5829 68.2816
rfemur -24.5284 2.2638 21.7549
rtibia 18.4632
rfoot -0.740258 -12.7654
rtoes 16.4761
lfemur -6.83093 -2.91967 -13.9393
ltibia 45.12
lfoot 1.5026 -2.42612
ltoes -18.5133
